PathFileType	4	(X/Y/Z)	./resultDataOpenSim/trcMotMarkerGrf/sub10/qtm-01-02.trc
DataRate	CameraRate	NumFrames	NumMarkers	Units	OrigDataRate	OrigDataStartFrame	OrigNumFrames
250.000000	250.000000	12	24	m	250.000000	171	454
Frame#	Time	L.Toe.Tip			R.Toe.Tip			L.Ankle.Lat			R.Ankle.Lat			L.Ankle.Med			R.Ankle.Med			L.Heel			R.Heel			L.Knee.Lat			R.Knee.Lat			L.Knee.Med			R.Knee.Med			L.Thigh.Upper			R.Thigh.Upper			L.ASIS			R.ASIS			V.Sacral			L.Acromium			R.Acromium			C7			L.Elbow			R.Elbow			L.Wrist.Lat			R.Wrist.Lat
		X1	Y1	Z1	X2	Y2	Z2	X3	Y3	Z3	X4	Y4	Z4	X5	Y5	Z5	X6	Y6	Z6	X7	Y7	Z7	X8	Y8	Z8	X9	Y9	Z9	X10	Y10	Z10	X11	Y11	Z11	X12	Y12	Z12	X13	Y13	Z13	X14	Y14	Z14	X15	Y15	Z15	X16	Y16	Z16	X17	Y17	Z17	X18	Y18	Z18	X19	Y19	Z19	X20	Y20	Z20	X21	Y21	Z21	X22	Y22	Z22	X23	Y23	Z23	X24	Y24	Z24

171	0.68	0.077891498	0.058718135	-0.029134102	-0.73295728	0.037716243	0.054437611	-0.051806955	0.067606594	-0.067842223	-0.82089873	0.1436601	0.098263177	-0.055327576	0.091824209	0.015421335	-0.78118716	0.1479966	0.020082643	-0.11663743	0.031809989	-0.030729504	-0.86800016	0.15742738	0.045434868	-0.1123515	0.45299323	-0.10275919	-0.539313	0.42393092	0.13718813	-0.10934398	0.43245396	0.01915315	-0.50111437	0.41161515	0.014841537	-0.26782301	0.79571552	-0.17538418	-0.40993832	0.80461263	0.19209832	-0.24322552	0.89621797	-0.087598262	-0.3028995	0.88081662	0.15388204	-0.46593363	0.90853334	-0.032104958	-0.32950906	1.3663241	-0.14432009	-0.33345353	1.3567605	0.18077604	-0.42134676	1.3916301	0.012070922	-0.49464129	1.0672913	-0.18042484	-0.30169164	0.99842731	0.23361604	-0.47214915	0.83479488	-0.24426217	-0.055078418	0.94724505	0.21629504
172	0.684	0.079086572	0.05625748	-0.028465851	-0.73128083	0.037414156	0.054504484	-0.050455269	0.067537533	-0.067800759	-0.81308351	0.1482777	0.098713858	-0.054080604	0.091781895	0.015367119	-0.77218046	0.15033056	0.021400824	-0.11595041	0.032518692	-0.030966697	-0.85848523	0.16398598	0.045143079	-0.10395361	0.45463055	-0.10227621	-0.5272717	0.42336379	0.13769553	-0.10219009	0.4342127	0.019646733	-0.48884434	0.41018645	0.01586203	-0.25971402	0.79723897	-0.1755451	-0.40086212	0.80404102	0.19225747	-0.23553433	0.89743632	-0.088130996	-0.29404575	0.88100779	0.1528062	-0.45813995	0.90938902	-0.031775462	-0.32189971	1.3669085	-0.14513614	-0.32602985	1.3578082	0.18002026	-0.41374416	1.3923724	0.011202175	-0.48665039	1.0681431	-0.17952565	-0.2957637	0.99923139	0.23300072	-0.46468997	0.83505521	-0.24424375	-0.049334602	0.94691172	0.21564735
173	0.688	0.080411284	0.054082417	-0.027955412	-0.72951395	0.037033546	0.05460404	-0.049033285	0.067487176	-0.067640724	-0.80463695	0.15272264	0.099190311	-0.052746746	0.091729126	0.015427939	-0.76269768	0.15253375	0.022673634	-0.11518022	0.033189947	-0.031075959	-0.84826601	0.17050511	0.044797311	-0.095790918	0.45609723	-0.10175571	-0.51482063	0.42270906	0.13830837	-0.095189123	0.43595408	0.020070248	-0.47612472	0.40855894	0.017038601	-0.25157055	0.79882726	-0.17566052	-0.39174682	0.80352825	0.19247421	-0.22787076	0.89876661	-0.088638171	-0.28523756	0.88130064	0.15162574	-0.45033976	0.91029864	-0.031430215	-0.31426581	1.3675665	-0.14590992	-0.3186321	1.3589158	0.17926141	-0.40602909	1.3931815	0.010301878	-0.48017164	1.0690717	-0.17745706	-0.28997479	1.0001375	0.23242128	-0.45710455	0.83539501	-0.24416732	-0.043785962	0.94653422	0.21507784
174	0.692	0.081771981	0.052142581	-0.027691603	-0.72761795	0.036660574	0.054701083	-0.047660568	0.067456124	-0.067386116	-0.79571551	0.1570022	0.099707434	-0.051370901	0.091623314	0.015592102	-0.75288894	0.15467401	0.023893319	-0.11435191	0.033809414	-0.03093421	-0.83744855	0.17697312	0.044442428	-0.087965682	0.45732546	-0.10123015	-0.50207062	0.4219751	0.13897077	-0.088375286	0.43758375	0.020407581	-0.46294367	0.40668919	0.018332334	-0.24345797	0.80042256	-0.17574479	-0.38262581	0.80304364	0.19267915	-0.22021351	0.90017896	-0.089132027	-0.27652168	0.88166196	0.15037316	-0.44251308	0.91124943	-0.031084406	-0.30665046	1.3682952	-0.146649	-0.31124652	1.3600531	0.17849663	-0.39828041	1.394028	0.0092658686	-0.4747069	1.0700677	-0.17507613	-0.28431565	1.0011283	0.23188429	-0.4493832	0.83581	-0.24404515	-0.038420478	0.94610138	0.21455779
175	0.696	0.083048537	0.050421497	-0.027638674	-0.72541548	0.036543156	0.054796491	-0.046469496	0.067425451	-0.067100251	-0.78645105	0.16121272	0.10031651	-0.050064936	0.091451348	0.015817839	-0.74286812	0.15681067	0.025077004	-0.11353606	0.034342751	-0.030481229	-0.8261946	0.18338063	0.04424086	-0.080579561	0.45824694	-0.10073497	-0.48910498	0.42115227	0.13965517	-0.081779818	0.43899005	0.020652899	-0.44928208	0.40454516	0.019694863	-0.2354601	0.80198189	-0.17581396	-0.37355666	0.80255179	0.19279502	-0.21254797	0.90164666	-0.089614263	-0.26793554	0.88205837	0.14909318	-0.43463086	0.91221758	-0.030778985	-0.29906075	1.3690805	-0.14735153	-0.30387184	1.3611991	0.17771946	-0.39059467	1.3948908	0.0082493271	-0.46959924	1.0711039	-0.1727861	-0.27877778	1.0021796	0.23138475	-0.44150647	0.83628634	-0.24389487	-0.033183042	0.94560143	0.21405385
176	0.7	0.084163307	0.048961569	-0.027642826	-0.72265193	0.037015864	0.054953443	-0.045533254	0.067362764	-0.066835943	-0.77688476	0.16544376	0.10104886	-0.04895685	0.091232388	0.0160615	-0.73267289	0.15898871	0.026228489	-0.11283273	0.034751782	-0.029880101	-0.81474462	0.18972889	0.044407696	-0.073735598	0.45881095	-0.10030689	-0.47597615	0.4202187	0.14038687	-0.075441307	0.44007358	0.020807579	-0.43515966	0.40212114	0.021090788	-0.22760319	0.80348162	-0.17590874	-0.36457836	0.80204466	0.1927887	-0.20491581	0.90313924	-0.090091794	-0.25948712	0.88246879	0.14781504	-0.42668	0.91315861	-0.030590367	-0.29145119	1.3698975	-0.14800965	-0.29653751	1.3623478	0.17693226	-0.38300548	1.3957601	0.0073831393	-0.464352	1.0721834	-0.17054997	-0.27336151	1.0032766	0.23091152	-0.43346376	0.83680908	-0.24373569	-0.028046564	0.94503138	0.21356936
177	0.704	0.085087167	0.047801572	-0.027536665	-0.71916709	0.038296114	0.055261996	-0.044852367	0.067255297	-0.06659992	-0.76698127	0.1697137	0.1018744	-0.04812695	0.090990117	0.016300926	-0.72228735	0.16125722	0.027324068	-0.11232456	0.035023611	-0.029403911	-0.80333853	0.19602335	0.045115685	-0.067510252	0.45901321	-0.099979924	-0.46271464	0.41916243	0.14122477	-0.069415137	0.44078618	0.020869159	-0.42064267	0.3994423	0.022494917	-0.2199017	0.80491126	-0.17605134	-0.3556848	0.80153545	0.19266456	-0.1973757	0.90463624	-0.090580222	-0.25114215	0.88288649	0.1465324	-0.41872566	0.91401656	-0.030587407	-0.28378798	1.3707348	-0.14861924	-0.28928034	1.3635002	0.1761429	-0.37549344	1.3966207	0.0066238272	-0.45844803	1.0733541	-0.16822231	-0.26806187	1.0044103	0.23045504	-0.42526064	0.83736777	-0.24357884	-0.023014284	0.94439382	0.21312324
178	0.708	0.08583164	0.046909379	-0.027229629	-0.71499422	0.040343303	0.055755155	-0.044375309	0.067124634	-0.066373546	-0.75669446	0.17399692	0.10273037	-0.047560052	0.090727225	0.016541035	-0.71171826	0.16371132	0.028313997	-0.11201109	0.035185477	-0.029164857	-0.79198671	0.20226765	0.046349658	-0.061915733	0.45890229	-0.099779236	-0.44935181	0.41799408	0.14221513	-0.063771268	0.44114108	0.020823689	-0.40580323	0.39656185	0.02388001	-0.2123877	0.80626592	-0.17622346	-0.34683358	0.80103861	0.19243061	-0.18996119	0.90612876	-0.091096071	-0.24282362	0.88331218	0.14521077	-0.41097753	0.91478651	-0.030678943	-0.27608751	1.3716005	-0.14918296	-0.28211501	1.3646513	0.17535816	-0.36804918	1.3974575	0.0058947918	-0.45136945	1.0746354	-0.16588149	-0.26286352	1.0055697	0.23000999	-0.41690797	0.83795368	-0.24341879	-0.018086709	0.94369006	0.21271574
179	0.712	0.08644927	0.046192138	-0.026746907	-0.71023674	0.042920767	0.056368594	-0.044019194	0.06699987	-0.066138945	-0.74602212	0.17825931	0.10356346	-0.047156384	0.090434687	0.01679892	-0.70102459	0.16648818	0.029129458	-0.1118188	0.03528999	-0.029083868	-0.78043688	0.20844315	0.04783919	-0.05690438	0.45855143	-0.099719838	-0.43592829	0.41673768	0.14338231	-0.058568683	0.44117871	0.020668738	-0.3907058	0.3935543	0.025232949	-0.20504762	0.80754918	-0.17640753	-0.33798682	0.80056415	0.19209024	-0.18268754	0.90760448	-0.091653572	-0.23446336	0.88374807	0.14382374	-0.40374202	0.91559357	-0.030511889	-0.26836982	1.3725042	-0.14970615	-0.27503152	1.36579	0.1745847	-0.3606789	1.3982706	0.0051952847	-0.4430762	1.0759218	-0.16397649	-0.25775741	1.0067465	0.22957162	-0.40841048	0.83855408	-0.24324276	-0.013249792	0.94292029	0.21232874
180	0.716	0.087003649	0.045562926	-0.02621866	-0.70486525	0.045780072	0.05700956	-0.04370057	0.066887166	-0.065889169	-0.73501256	0.18247722	0.10433672	-0.046797709	0.090116227	0.017077149	-0.69023507	0.16965641	0.029732282	-0.11167399	0.035382259	-0.029049602	-0.76844938	0.21447697	0.049227375	-0.052399373	0.45802706	-0.09980118	-0.42246592	0.41541378	0.14474031	-0.053815472	0.4409312	0.020459277	-0.37541343	0.39051019	0.026569798	-0.19782598	0.80877831	-0.17660987	-0.32914809	0.80012103	0.19165661	-0.17555788	0.90904891	-0.0922614	-0.22609777	0.88419466	0.14240601	-0.39718605	0.91663058	-0.029753682	-0.26062397	1.3734473	-0.15019307	-0.26801213	1.366911	0.17382986	-0.35338146	1.3990752	0.0045896146	-0.43418177	1.0770426	-0.16296328	-0.25274757	1.0079366	0.22913385	-0.39976597	0.83915062	-0.24305148	-0.0084853127	0.94208749	0.21195271
181	0.72	0.08751686	0.044988529	-0.025796473	-0.69864274	0.048791607	0.057679833	-0.043375441	0.066771692	-0.065637385	-0.72371741	0.18666114	0.10502219	-0.046411387	0.089790932	0.017352069	-0.67927653	0.17311286	0.030162395	-0.11154891	0.035477473	-0.028998049	-0.75603771	0.22023979	0.050318375	-0.048313668	0.45738464	-0.099996892	-0.40895011	0.41403988	0.14626	-0.04948101	0.44042713	0.020290781	-0.35997928	0.38754535	0.027914244	-0.19068597	0.809984	-0.17685356	-0.32035443	0.79972268	0.19116637	-0.16855192	0.91046095	-0.092908485	-0.21787706	0.8846574	0.14105658	-0.39110103	0.91794645	-0.028498051	-0.25284596	1.3744247	-0.15065217	-0.26105022	1.3680234	0.17310898	-0.34614771	1.3998884	0.004134606	-0.42535883	1.0779322	-0.16281541	-0.24782609	1.0091364	0.2286893	-0.39096842	0.8397276	-0.24286051	-0.0037942489	0.94119781	0.2116087
182	0.724	0.087961426	0.044485387	-0.025541919	-0.69120932	0.051938629	0.058523078	-0.043055723	0.066639932	-0.065415568	-0.71215579	0.19085199	0.10559826	-0.045994259	0.089480378	0.017589076	-0.66803283	0.17664735	0.030485303	-0.11145382	0.035564985	-0.028914482	-0.74343397	0.22560121	0.051109769	-0.044558447	0.45668081	-0.10026161	-0.39537157	0.41265963	0.14783358	-0.045560923	0.43971522	0.020204612	-0.34445485	0.38481968	0.029267199	-0.18362593	0.81120374	-0.17716949	-0.3116363	0.79939074	0.19067165	-0.16163466	0.91185222	-0.09357014	-0.20989741	0.88516705	0.13982944	-0.38496998	0.91935537	-0.027189694	-0.24505825	1.3754282	-0.15109759	-0.25416514	1.3691491	0.17245023	-0.33897549	1.4007173	0.0037795643	-0.41681876	1.0786549	-0.16313761	-0.24297121	1.0103479	0.22823675	-0.38201324	0.84028449	-0.24268049	0.00078652152	0.94025679	0.21133631
